{"title":"Taste of Cherry (1997) 480p DVDRip XviD AC3 Junaid-Zia","uid":10681961,"size":1557028229,"categoryP":"video","categoryS":"hd___movies","magnet":"?xt=urn:btih:38e015fe43294ed6c4a6e34bd6b80daddef4a4de&amp;dn=Taste+of+Cherry+%281997%29+480p+DVDRip+XviD+AC3+Junaid-Zia&amp;tr=udp%3A%2F%2Ftracker.openbittorrent.com%3A80&amp;tr=udp%3A%2F%2Fopen.demonii.com%3A1337&amp;tr=udp%3A%2F%2Ftracker.coppersurfer.tk%3A6969&amp;tr=udp%3A%2F%2Fexodus.desync.com%3A6969","seeders":10,"leechers":3,"uploader":"junaidzia","files":-1,"time":1407040979,"description":"Taste of Cherry (1997) 480p DVDRip XviD AC3 Junaid-Zia\n\n\nIMDB: http://www.imdb.com/title/tt0120265/\n\nGeneral\nFormat : Matroska\nFormat version : Version 4 / Version 2\nFile size : 1.45 GiB\nDuration : 1h 39mn\nOverall bit rate : 2 087 Kbps\n\n\nVideo\nID : 1\nFormat : MPEG-4 Visual\nDuration : 1h 39mn\nBit rate : 1 854 Kbps\nWidth : 704 pixels\nHeight : 416 pixels\nDisplay aspect ratio : 1.692\nFrame rate mode : Constant\nFrame rate : 23.976 fps\nColor space : YUV\nChroma subsampling : 4:2:0\nBit depth : 8 bits\nScan type : Progressive\nCompression mode : Lossy\nThanks To : Criterion\nStream size : 1.29 GiB (89%)\nTitle : Presented By Junaid-Zia\nLanguage : Persian\n\nAudio\nID : 2\nFormat : AC-3\nFormat/Info : Audio Coding 3\nMode extension : CM (complete main)\nFormat settings, Endianness : Big\nCodec ID : A_AC3\nDuration : 1h 39mn\nBit rate mode : Constant\nBit rate : 192 Kbps\nChannel count : 2 channels\nChannel positions : Front: L R\nSampling rate : 48.0 KHz\nBit depth : 16 bits\nCompression mode : Lossy\nStream size : 137 MiB (9%)\nTitle : Presented By Junaid-Zia\nLanguage : Persian\n\n\nScreens:\n &lt;a href=&quot;\nhttp://s11.postimg.org/r51pw9ihv/image.jpg&quot; rel=&quot;nofollow&quot; target=&quot;_NEW&quot;&gt;\nhttp://s11.postimg.org/r51pw9ihv/image.jpg&lt;/a&gt;\n &lt;a href=&quot;\nhttp://s11.postimg.org/yddcljv8j/image.jpg&quot; rel=&quot;nofollow&quot; target=&quot;_NEW&quot;&gt;\nhttp://s11.postimg.org/yddcljv8j/image.jpg&lt;/a&gt;\n &lt;a href=&quot;\nhttp://s11.postimg.org/quu7cx3vn/image.jpg&quot; rel=&quot;nofollow&quot; target=&quot;_NEW&quot;&gt;\nhttp://s11.postimg.org/quu7cx3vn/image.jpg&lt;/a&gt;\n &lt;a href=&quot;\nhttp://s11.postimg.org/u2yopyq5f/image.jpg&quot; rel=&quot;nofollow&quot; target=&quot;_NEW&quot;&gt;\nhttp://s11.postimg.org/u2yopyq5f/image.jpg&lt;/a&gt;\n &lt;a href=&quot;\nhttp://s11.postimg.org/mx6xnih2b/image.jpg&quot; rel=&quot;nofollow&quot; target=&quot;_NEW&quot;&gt;\nhttp://s11.postimg.org/mx6xnih2b/image.jpg&lt;/a&gt;\n\n\n\nSeed After Downloading, Remember Sharing is Caring.\n\nGreetz To: Admins, Moderators, Encoders, &amp; All Other P2P RGs.","torrent":{"xt":"urn:btih:38e015fe43294ed6c4a6e34bd6b80daddef4a4de","amp;dn":"Taste+of+Cherry+%281997%29+480p+DVDRip+XviD+AC3+Junaid-Zia","amp;tr":["udp%3A%2F%2Ftracker.openbittorrent.com%3A80","udp%3A%2F%2Fopen.demonii.com%3A1337","udp%3A%2F%2Ftracker.coppersurfer.tk%3A6969","udp%3A%2F%2Fexodus.desync.com%3A6969"],"infoHash":"38e015fe43294ed6c4a6e34bd6b80daddef4a4de","infoHashBuffer":{"type":"Buffer","data":[56,224,21,254,67,41,78,214,196,166,227,75,214,184,13,173,222,244,164,222]},"announce":[],"urlList":[]}}